Coordinates
version=1
nRows=17
nColumns=36
inDegrees=yes

Units are S.I. units (second, meters, Newtons, ...)
If the header above contains a line with 'inDegrees', this indicates whether rotational values are in degrees (yes) or radians (no).

endheader
time	pelvis_tilt	pelvis_list	pelvis_rotation	pelvis_tx	pelvis_ty	pelvis_tz	hip_flexion_r	hip_adduction_r	hip_rotation_r	knee_angle_r	knee_angle_r_beta	ankle_angle_r	subtalar_angle_r	mtp_angle_r	hip_flexion_l	hip_adduction_l	hip_rotation_l	knee_angle_l	knee_angle_l_beta	ankle_angle_l	subtalar_angle_l	mtp_angle_l	lumbar_extension	lumbar_bending	lumbar_rotation	arm_flex_r	arm_add_r	arm_rot_r	elbow_flex_r	pro_sup_r	arm_flex_l	arm_add_l	arm_rot_l	elbow_flex_l	pro_sup_l
      2.97916670	    -13.78363379	     -2.15069229	     -1.42095869	      0.36548405	      1.24549662	     -0.07788374	      6.76539848	     -3.58369452	    -18.04540480	      2.62318021	      0.04578313	    -35.34469005	     -2.32868585	     -7.49999987	      9.36734431	     -6.18880626	     -6.45245201	      3.93078600	      0.06860516	    -39.19966348	    -11.52182916	     -7.49999987	      3.76298979	      1.94133956	      0.80004848	     -8.53722899	    -30.73962971	    -12.24231162	     41.47869349	     69.87538463	    -30.11327941	    -31.62582645	     30.81515250	     27.14514977	     43.45838208
      2.98333330	    -13.72005954	     -2.25104928	     -1.36918390	      0.36538638	      1.25018562	     -0.07889384	      6.72616760	     -3.45497888	    -18.00944358	      2.65079266	      0.04626506	    -35.21758616	     -2.34947382	     -7.49999987	      9.26939658	     -6.33421756	     -6.42872684	      4.02754223	      0.07029387	    -39.27837999	    -11.48143496	     -7.49999987	      3.79865430	      2.00159475	      0.78070458	     -8.86358769	    -29.77339653	    -11.92937530	     41.34426962	     69.89227581	    -29.90764033	    -31.24240676	     30.83938130	     27.27909304	     43.44052374
      2.98750000	    -13.62512255	     -2.33982420	     -1.15657066	      0.36512458	      1.25637919	     -0.07769692	      6.61880740	     -3.33566194	    -17.83326869	      2.61137580	      0.04557711	    -34.45697075	     -1.82554611	     -7.49999987	      9.33792498	     -6.48683845	     -6.20473930	      4.32214191	      0.07543561	    -39.56618068	    -11.54351218	     -7.49999987	      3.79018978	      1.79623891	      0.60750989	     -8.18754721	    -29.36345519	     -7.76691142	     39.16777462	     66.68750569	    -29.29348857	    -31.00497438	     31.65519286	     26.61155704	     37.76362573
      2.99166670	    -13.42676087	     -2.38788808	     -1.05982680	      0.36586495	      1.26037587	     -0.07907838	      6.41024669	     -3.32310541	    -17.65357130	      2.58307172	      0.04508311	    -34.16884019	     -1.44478669	     -7.49999987	      9.17580292	     -6.57240866	     -5.96733998	      4.51954710	      0.07888098	    -39.55899731	    -11.29394002	     -7.49999987	      3.59636567	      1.62422443	      0.86032893	     -8.55162362	    -28.42129588	     -6.99611580	     38.64575489	     66.41658082	    -28.70055759	    -30.95839205	     31.55377374	     26.57510353	     38.47526684
      2.99583330	    -13.39355611	     -2.44165770	     -0.95136248	      0.36516098	      1.26748894	     -0.07749144	      6.45152792	     -3.27032992	    -17.53609293	      2.60614350	      0.04548578	    -33.85168992	     -0.86609711	     -7.49999987	      9.24153067	     -6.68181550	     -5.88830915	      4.72675788	      0.08249749	    -39.67072144	    -11.05899240	     -7.49999987	      3.76144482	      1.49735525	      0.55665639	     -8.04557129	    -27.85342777	     -3.84399315	     37.22873310	     66.24014949	    -28.27903448	    -30.58278505	     32.50481304	     25.76101306	     37.60290450
      3.00000000	    -13.26528047	     -2.47198005	     -0.68678243	      0.36591161	      1.27177273	     -0.07677270	      6.28341176	     -3.20282622	    -17.37232451	      2.48749787	      0.04341503	    -33.92099421	     -0.42016112	     -7.49999987	      9.25568612	     -6.72834462	     -5.81782271	      4.91145146	      0.08572100	    -40.00706693	    -11.13509205	     -7.49999987	      3.67639975	      1.39853564	      0.58084065	     -8.02959486	    -27.12130896	     -1.94827297	     36.30998097	     65.28043184	    -27.56201908	    -30.38719401	     32.16527849	     25.31777964	     38.08113378
      3.00416670	    -13.12836362	     -2.44664461	     -0.55669992	      0.36511838	      1.27742566	     -0.07685391	      6.18850414	     -3.17128817	    -17.33791440	      2.44778915	      0.04272198	    -33.99436324	     -0.18631173	     -7.49999987	      9.20060430	     -6.73128678	     -5.77883279	      5.03399027	      0.08785970	    -40.20993435	    -10.92977705	     -7.49999987	      3.49193153	      1.25407267	      0.71757860	     -8.23288807	    -26.25430631	     -1.01734673	     35.91884774	     65.23457923	    -26.76254333	    -30.43301125	     32.18863108	     25.43293626	     37.86128377
      3.00833330	    -13.08025160	     -2.40150499	     -0.44948248	      0.36741863	      1.28249426	     -0.07760560	      6.13641310	     -3.18608120	    -17.17787791	      2.47969949	      0.04327892	    -33.97099384	      0.02517895	     -7.49999987	      9.18937570	     -6.70279379	     -5.73996588	      5.15919420	      0.09004493	    -40.32650902	    -10.78511974	     -7.49999987	      3.48714722	      1.11443562	      0.60421420	     -8.50918093	    -25.28347817	     -0.56653029	     35.83367511	     65.24486441	    -26.39756867	    -30.28833223	     32.20150103	     25.50066177	     37.82784000
      3.01250000	    -12.93633111	     -2.34339571	     -0.33975130	      0.36712933	      1.28505742	     -0.07988750	      6.00127646	     -3.31241829	    -17.48436687	      2.43107073	      0.04243019	    -34.06039263	      0.56314758	     -7.49999987	      8.97592674	     -6.58535694	     -5.74288517	      5.07564997	      0.08858680	    -40.34301859	    -10.76052628	     -7.49999987	      3.54292410	      0.96495141	      0.17409796	     -8.03134653	    -25.13639307	      3.91984026	     34.56563432	     64.15514094	    -25.89206886	    -30.02173408	     33.61213138	     24.98474487	     37.31230369
      3.01666670	    -12.87218335	     -2.38076918	     -0.24815474	      0.36831972	      1.29007254	     -0.08061047	      5.99572584	     -3.32799679	    -17.40903165	      2.52129785	      0.04400495	    -34.21588905	      0.63502946	     -7.49999987	      8.86192987	     -6.55043728	     -5.72435844	      5.06082730	      0.08832810	    -40.24619837	    -10.80063817	     -7.49999987	      3.57363098	      1.01049617	     -0.08968717	     -8.37694651	    -24.33159527	      4.14233918	     34.54155298	     64.15472171	    -25.58158256	    -29.63391818	     33.64163187	     25.16062502	     37.30067491
      3.02083330	    -12.66675088	     -2.32390349	     -0.13020491	      0.36963908	      1.29417237	     -0.08210580	      5.76784469	     -3.46776106	    -17.87869584	      2.49059538	      0.04346909	    -34.59053399	      0.62459715	     -7.49999987	      8.57313196	     -6.40089154	     -5.62659636	      4.99673058	      0.08720940	    -39.89797064	    -10.89858714	     -7.49999987	      3.45550663	      0.93970205	     -0.07366354	     -8.32102763	    -24.30260640	      8.35290623	     33.89480659	     58.76029662	    -24.59044226	    -29.70943147	     37.37006129	     25.07771641	     31.61102361
      3.02500000	    -12.58284242	     -2.22460716	      0.01199516	      0.36812815	      1.29884932	     -0.07849600	      5.69353139	     -3.53694413	    -17.85124331	      2.43128529	      0.04243393	    -34.51376345	      0.79364586	     -7.49999987	      8.49883610	     -6.34549660	     -5.46295364	      5.03821793	      0.08793349	    -39.70673037	    -10.95503518	     -7.49999987	      3.31125520	      0.80513724	     -0.02339932	     -8.66081877	    -23.55500697	      8.95411061	     33.74682805	     58.86021231	    -24.06937835	    -29.52829789	     37.48193391	     25.16331809	     31.60981828
      3.02916670	    -12.40081393	     -2.25180412	      0.18451046	      0.36842026	      1.30304942	     -0.08137328	      5.54318496	     -3.55603578	    -17.95217568	      2.31592235	      0.04042047	    -34.87753082	      1.18924898	     -7.49999987	      8.31741007	     -6.34641309	     -5.43861846	      4.86680325	      0.08494174	    -39.48587078	    -10.86864077	     -7.49999987	      3.05261311	      0.76815816	     -0.14372969	     -8.49079737	    -23.47257497	     12.20544224	     33.27117215	     59.25305854	    -23.49348914	    -29.34811062	     39.43895026	     25.23381323	     31.67923689
      3.03333330	    -12.36092965	     -2.22282015	      0.38455984	      0.37046417	      1.30827371	     -0.08218319	      5.50873285	     -3.64413973	    -17.99150773	      2.18990962	      0.03822113	    -35.34183061	      1.45750419	     -7.49999987	      8.24336917	     -6.26421215	     -5.30168013	      4.72907162	      0.08253787	    -39.25230312	    -10.93107237	     -7.49999987	      3.00489685	      0.58538698	     -0.08561186	     -8.89242190	    -22.82443105	     12.76222234	     33.08986554	     59.27768735	    -23.18906395	    -29.01758247	     39.58595084	     25.36489498	     31.64278782
      3.03750000	    -12.26717528	     -2.27695726	      0.56115622	      0.37163881	      1.30891602	     -0.08242336	      5.46696699	     -3.68419722	    -17.88507710	      2.13901337	      0.03733283	    -35.90791772	      1.63749957	     -7.49999987	      8.09464223	     -6.26864008	     -5.36055728	      4.59688416	      0.08023076	    -38.91091664	    -11.13331967	     -7.49999987	      3.00408520	      0.56463728	     -0.36967278	     -8.47119603	    -22.91437614	     17.58118090	     32.25740495	     58.93262769	    -22.95429079	    -28.68419061	     41.49643731	     25.20951841	     32.83804456
      3.04166670	    -12.12719992	     -2.35612425	      0.76519496	      0.37211161	      1.30844305	     -0.08129231	      5.37247230	     -3.60721700	    -18.06135635	      2.13490309	      0.03726109	    -36.45359052	      1.21614137	     -7.49999987	      7.92863399	     -6.33774602	     -5.42099609	      4.46207354	      0.07787787	    -38.73384524	    -11.62526710	     -7.49999987	      2.85645202	      0.59216282	     -0.51914953	     -8.34382995	    -22.77054883	     20.79276225	     31.85148933	     57.78760387	    -22.70200016	    -28.46378083	     42.96254553	     25.36272731	     32.09359833
      3.04583330	    -12.13252357	     -2.36751594	      0.94735986	      0.37107118	      1.31264348	     -0.08000231	      5.43471425	     -3.54616904	    -18.11424797	      2.10983891	      0.03682364	    -36.45769223	      1.15300863	     -7.49999987	      8.00529252	     -6.37229762	     -5.61814811	      4.34446455	      0.07582521	    -38.60004061	    -11.85219576	     -7.49999987	      2.74654155	      0.53104343	     -0.60567088	     -8.58305670	    -22.14673826	     20.98756032	     31.92973466	     57.80005577	    -22.56793167	    -28.16091589	     43.00901182	     25.49968566	     32.08524111
